<svg xmlns="http://www.w3.org/2000/svg" width="1200" height="226" viewBox="0 0 1200 226" fill="none" role="img" aria-label="Data, train, evaluate, serve">
<rect x="0.5" y="30" width="272" height="140" rx="5" fill="#FBFCFD" stroke="#D3D9E1" stroke-width="1"/>
<rect x="0.5" y="30" width="3" height="140" rx="1.5" fill="#1F6F66"/>
<text x="20.5" y="62" font-family="ui-monospace, SFMono-Regular, Menlo, Consolas, monospace" font-size="15" letter-spacing="1.9" fill="#1F6F66" font-weight="600">DATA</text>
<text x="20.5" y="94" font-family="-apple-system, BlinkMacSystemFont, 'Segoe UI', Helvetica, Arial, sans-serif" font-size="17.5" fill="#4A5566">telephone channel sim</text>
<text x="20.5" y="120" font-family="-apple-system, BlinkMacSystemFont, 'Segoe UI', Helvetica, Arial, sans-serif" font-size="17.5" fill="#4A5566">forced alignment</text>
<text x="20.5" y="146" font-family="-apple-system, BlinkMacSystemFont, 'Segoe UI', Helvetica, Arial, sans-serif" font-size="17.5" fill="#4A5566">hard negatives</text>
<path d="M282.0,100.0 L298.0,100.0 M293.0,95.5 L298.0,100.0 L293.0,104.5" stroke="#D3D9E1" stroke-width="1.4" stroke-linecap="round" stroke-linejoin="round"/>
<rect x="309.5" y="30" width="272" height="140" rx="5" fill="#FBFCFD" stroke="#D3D9E1" stroke-width="1"/>
<rect x="309.5" y="30" width="3" height="140" rx="1.5" fill="#1F6F66"/>
<text x="329.5" y="62" font-family="ui-monospace, SFMono-Regular, Menlo, Consolas, monospace" font-size="15" letter-spacing="1.9" fill="#1F6F66" font-weight="600">TRAIN</text>
<text x="329.5" y="94" font-family="-apple-system, BlinkMacSystemFont, 'Segoe UI', Helvetica, Arial, sans-serif" font-size="17.5" fill="#4A5566">TTS / ASR fine-tune</text>
<text x="329.5" y="120" font-family="-apple-system, BlinkMacSystemFont, 'Segoe UI', Helvetica, Arial, sans-serif" font-size="17.5" fill="#4A5566">LoRA and full</text>
<text x="329.5" y="146" font-family="-apple-system, BlinkMacSystemFont, 'Segoe UI', Helvetica, Arial, sans-serif" font-size="17.5" fill="#4A5566">from scratch when needed</text>
<path d="M591.0,100.0 L607.0,100.0 M602.0,95.5 L607.0,100.0 L602.0,104.5" stroke="#D3D9E1" stroke-width="1.4" stroke-linecap="round" stroke-linejoin="round"/>
<rect x="618.5" y="30" width="272" height="140" rx="5" fill="#FBFCFD" stroke="#D3D9E1" stroke-width="1"/>
<rect x="618.5" y="30" width="3" height="140" rx="1.5" fill="#1F6F66"/>
<text x="638.5" y="62" font-family="ui-monospace, SFMono-Regular, Menlo, Consolas, monospace" font-size="15" letter-spacing="1.9" fill="#1F6F66" font-weight="600">EVALUATE</text>
<text x="638.5" y="94" font-family="-apple-system, BlinkMacSystemFont, 'Segoe UI', Helvetica, Arial, sans-serif" font-size="17.5" fill="#4A5566">WER, word-level</text>
<text x="638.5" y="120" font-family="-apple-system, BlinkMacSystemFont, 'Segoe UI', Helvetica, Arial, sans-serif" font-size="17.5" fill="#4A5566">A/B harnesses</text>
<text x="638.5" y="146" font-family="-apple-system, BlinkMacSystemFont, 'Segoe UI', Helvetica, Arial, sans-serif" font-size="17.5" fill="#4A5566">LLM judges</text>
<path d="M900.0,100.0 L916.0,100.0 M911.0,95.5 L916.0,100.0 L911.0,104.5" stroke="#D3D9E1" stroke-width="1.4" stroke-linecap="round" stroke-linejoin="round"/>
<rect x="927.5" y="30" width="272" height="140" rx="5" fill="#FBFCFD" stroke="#D3D9E1" stroke-width="1"/>
<rect x="927.5" y="30" width="3" height="140" rx="1.5" fill="#1F6F66"/>
<text x="947.5" y="62" font-family="ui-monospace, SFMono-Regular, Menlo, Consolas, monospace" font-size="15" letter-spacing="1.9" fill="#1F6F66" font-weight="600">SERVE</text>
<text x="947.5" y="94" font-family="-apple-system, BlinkMacSystemFont, 'Segoe UI', Helvetica, Arial, sans-serif" font-size="17.5" fill="#4A5566">quantise</text>
<text x="947.5" y="120" font-family="-apple-system, BlinkMacSystemFont, 'Segoe UI', Helvetica, Arial, sans-serif" font-size="17.5" fill="#4A5566">batched inference</text>
<text x="947.5" y="146" font-family="-apple-system, BlinkMacSystemFont, 'Segoe UI', Helvetica, Arial, sans-serif" font-size="17.5" fill="#4A5566">measure the latency</text>
<path d="M754.5,170 L754.5,202 L136.5,202 L136.5,177 M132.0,182 L136.5,176 L141.0,182" stroke="#D3D9E1" stroke-width="1.2" stroke-dasharray="3 4" fill="none" stroke-linecap="round" stroke-linejoin="round"/>
<text x="445.5" y="195" text-anchor="middle" font-family="-apple-system, BlinkMacSystemFont, 'Segoe UI', Helvetica, Arial, sans-serif" font-size="15" fill="#4A5566" font-style="italic">most of the gain lives here</text>
</svg>